<svg width="150px" height="73px" viewBox="0 0 150 73" version="1.1" xmlns="http://www.w3.org/2000/svg" xmlns:xlink="http://www.w3.org/1999/xlink">
    <g id="Teams" stroke="none" stroke-width="1" fill="none" fill-rule="evenodd">
        <g id="Teams-/-Alternate-Logo-/-ATL---Faze---2" transform="translate(-5.000000, -44.000000)">
            <g id="ATL-FAZ_Alternate-Logo-2" transform="translate(5.000000, 44.000000)">
                <polygon id="Fill-1" fill="#000000" points="78.1303302 1.58500406 145.678948 1.58500406 132.169225 15.0947277 91.6400539 15.0947277 91.6400539 21.8497876 125.414561 21.8497876 111.904441 35.359115 91.6400539 35.359115 91.6400539 55.6238986 78.1303302 69.1336222"></polygon>
                <path d="M59.2986243,24.6126377 L48.3475574,13.6615708 L59.2986243,13.6615708 L59.2986243,24.6126377 Z M3.82645397,1.58512294 L17.3361776,15.0944503 L30.6751128,15.0944503 L57.8657448,42.2854786 L57.8657448,55.6240175 L71.3754684,69.1337411 L71.3754684,1.58512294 L3.82645397,1.58512294 Z" id="Fill-2" fill="#000000"></path>
                <path d="M76.5452469,0 L76.5452469,1.58504369 L76.5452469,69.1336619 L76.5452469,72.9603536 L79.2509165,70.254684 L92.7606401,56.7449604 L93.2250579,56.2805426 L93.2250579,55.6239382 L93.2250579,36.9445946 L111.904402,36.9445946 L112.561402,36.9445946 L113.025424,36.4801768 L126.535544,22.9704532 L129.240817,20.2647836 L125.414521,20.2647836 L93.2250579,20.2647836 L93.2250579,16.679811 L132.169185,16.679811 L132.825789,16.679811 L133.290207,16.2153932 L146.799931,2.70566958 L149.5056,0 L76.5452469,0 Z M78.1306869,1.58504369 L145.678909,1.58504369 L132.169185,15.0943711 L91.639618,15.0943711 L91.639618,21.849431 L125.414521,21.849431 L111.904402,35.3591546 L91.639618,35.3591546 L91.639618,55.6239382 L78.1306869,69.1336619 L78.1306869,1.58504369 Z" id="Fill-3" fill="#FFFFFF"></path>
                <path d="M0,0 L2.70566958,2.70566958 L16.2153932,16.2153932 L16.679811,16.679811 L17.3364154,16.679811 L30.0183499,16.679811 L56.2805426,42.9416074 L56.2805426,55.6239382 L56.2805426,56.2805426 L56.7449604,56.7449604 L70.254684,70.254684 L72.9603536,72.9603536 L72.9603536,69.1336619 L72.9603536,1.58504369 L72.9603536,0 L0,0 Z M3.82669173,1.58504369 L71.3753099,1.58504369 L71.3753099,69.1336619 L57.8655863,55.6239382 L57.8655863,42.2853993 L30.6749543,15.0943711 L17.3364154,15.0943711 L3.82669173,1.58504369 Z M48.3473989,13.6614916 L59.298862,24.6129547 L59.298862,13.6614916 L48.3473989,13.6614916 Z M52.1744869,15.2469315 L57.7134221,15.2469315 L57.7134221,20.7858667 L52.1744869,15.2469315 Z" id="Fill-4" fill="#FFFFFF"></path>
            </g>
        </g>
    </g>
</svg>